<?xml version="1.0" encoding="UTF-8"?>
<svg id="Layer_1" data-name="Layer 1" xmlns="http://www.w3.org/2000/svg" viewBox="0 0 278.05 45">
  <defs>
    <style>
      .cls-1 {
        fill: #ee326e;
      }

      .cls-2 {
        fill: #fff;
      }
    </style>
  </defs>
  <g>
    <circle class="cls-1" cx="21.84" cy="21.84" r="21.84"/>
    <path class="cls-2" d="M30.56,32.22h-12.82c-2.86,0-5.19-2.33-5.19-5.19v-12.82c0-2.86,2.33-5.19,5.19-5.19h12.82c2.86,0,5.19,2.33,5.19,5.19v12.82c0,2.86-2.33,5.19-5.19,5.19ZM17.74,10.42c-2.08,0-3.78,1.7-3.78,3.78v12.82c0,2.08,1.7,3.78,3.78,3.78h12.82c2.08,0,3.78-1.7,3.78-3.78v-12.82c0-2.08-1.7-3.78-3.78-3.78h-12.82Z"/>
    <path class="cls-2" d="M16.77,35.33c-2.13,0-4.13-1.33-4.87-3.46l-4.07-11.65c-.45-1.29-.37-2.69.23-3.94.6-1.24,1.64-2.18,2.94-2.63l2.07-.72.46,1.32-2.07.72c-.94.33-1.7,1.01-2.14,1.92-.44.91-.5,1.93-.17,2.87l4.07,11.65c.68,1.96,2.83,2.99,4.78,2.31l8.21-2.86.46,1.32-8.21,2.86c-.56.2-1.13.29-1.69.29Z"/>
    <path class="cls-2" d="M20.01,18.11h-2.68c-.83,0-1.5-.67-1.5-1.5v-2.88c0-.83.67-1.5,1.5-1.5h2.68c.83,0,1.5.67,1.5,1.5v2.88c0,.83-.67,1.5-1.5,1.5ZM17.33,13.28c-.24,0-.44.2-.44.44v2.88c0,.24.2.44.44.44h2.68c.24,0,.44-.2.44-.44v-2.88c0-.24-.2-.44-.44-.44h-2.68Z"/>
    <path class="cls-2" d="M30.43,28.94c-.16,0-.31-.07-.42-.2l-2.39-3.08-1.42,1.42c-.15.14-.36.19-.55.12-.19-.07-.33-.25-.35-.45l-.67-7.6c-.02-.19.07-.38.23-.49.16-.11.37-.12.54-.03l6.38,3.35c.18.1.29.29.28.5-.01.21-.14.39-.34.46l-1.5.58,2.36,3.27c.17.23.12.56-.11.73l-1.72,1.31c-.1.07-.21.11-.32.11ZM27.67,24.33s.02,0,.03,0c.15,0,.29.08.38.2l2.44,3.14.9-.68-2.46-3.41c-.1-.13-.12-.3-.08-.46s.16-.28.32-.34l1.05-.41-4.49-2.35.49,5.51,1.04-1.04c.1-.1.23-.15.37-.15Z"/>
    <path class="cls-2" d="M13.25,26.32c-.2,0-.41-.09-.55-.26-.25-.3-.2-.75.1-.99l5.17-4.24c.24-.2.58-.21.84-.04l4.76,3.17c.32.22.41.65.2.98-.21.32-.65.41-.98.2l-4.32-2.88-4.77,3.91c-.13.11-.29.16-.45.16Z"/>
  </g>
  <g>
    <rect x="52.37" y="6.33" width="6.66" height="29.98"/>
    <path d="M90.97,13.8c-1.11-.73-2.37-1.09-3.78-1.09-1.7,0-3.21.54-4.52,1.61-.7.57-1.29,1.26-1.8,2.06-.42-.83-.94-1.52-1.56-2.06-1.24-1.07-2.68-1.61-4.32-1.61-1.43,0-2.73.42-3.9,1.26-.58.42-1.09.93-1.55,1.55v-2.43h-6.08v23.21h6.39v-11.52c0-1.2.14-2.18.42-2.93.28-.76.66-1.32,1.14-1.69.48-.37,1.04-.56,1.66-.56.87,0,1.55.38,2.03,1.13.48.76.72,1.96.72,3.62v11.95h6.39v-11.52c0-1.2.13-2.18.4-2.93.27-.76.65-1.32,1.14-1.69.49-.37,1.04-.56,1.65-.56.85,0,1.52.38,2.02,1.13.49.76.74,1.96.74,3.62v11.95h6.39v-13.28c0-2.4-.32-4.35-.96-5.87-.64-1.51-1.51-2.63-2.62-3.36Z"/>
    <path d="M106.34,12.71c-1.43,0-2.87.24-4.32.71-1.45.47-2.68,1.14-3.71,1.99l2.15,5.52c.63-.63,1.39-1.12,2.29-1.48.9-.36,1.78-.54,2.65-.54,1.34,0,2.32.35,2.94,1.05.56.63.85,1.52.9,2.63h-3.61c-1.88,0-3.42.28-4.6.84-1.19.56-2.07,1.36-2.64,2.4-.57,1.04-.86,2.28-.86,3.7,0,1.34.26,2.56.79,3.64.53,1.09,1.29,1.94,2.3,2.57,1.01.63,2.24.94,3.7.94,1.59,0,2.87-.41,3.85-1.22.66-.55,1.16-1.3,1.53-2.21v3.05h5.95v-12.89c0-3.68-.81-6.39-2.44-8.12-1.62-1.73-3.92-2.59-6.87-2.59ZM108.01,30.89c-.57.44-1.2.66-1.9.66-.74,0-1.32-.21-1.75-.64-.43-.43-.64-1-.64-1.71s.21-1.28.62-1.71,1.14-.64,2.17-.64h2.76v2.01c-.27.91-.69,1.59-1.26,2.03Z"/>
    <path d="M133.43,15.91c-.48-.84-1.06-1.53-1.75-2.02-1.1-.78-2.42-1.18-3.97-1.18s-3.1.46-4.45,1.37c-1.36.91-2.44,2.21-3.26,3.88-.82,1.67-1.23,3.65-1.23,5.93s.41,4.26,1.23,5.93c.82,1.67,1.91,2.97,3.26,3.9,1.36.93,2.84,1.39,4.45,1.39s2.87-.4,3.97-1.2c.55-.4,1.03-.9,1.45-1.52v.74c0,1.83-.38,3.22-1.14,4.18-.76.96-2.01,1.43-3.73,1.43-1.08,0-2.18-.22-3.31-.66-1.13-.44-2.08-1.05-2.84-1.82l-2.32,5.7c1.12,1,2.47,1.76,4.05,2.27,1.58.51,3.24.77,4.99.77,3.41,0,6.04-1.06,7.9-3.17,1.86-2.11,2.79-5.37,2.79-9.76V13.09h-6.08v2.81ZM131.26,28.04c-.59.4-1.27.6-2.03.6s-1.44-.2-2.05-.6c-.6-.4-1.08-.96-1.43-1.67-.35-.71-.52-1.54-.52-2.48s.17-1.77.52-2.48c.35-.71.82-1.26,1.43-1.65.6-.38,1.29-.58,2.05-.58s1.44.19,2.03.58c.59.39,1.06.94,1.41,1.65.35.71.52,1.54.52,2.48s-.17,1.77-.52,2.48c-.35.71-.82,1.27-1.41,1.67Z"/>
    <path d="M160.93,18.19c-.87-1.8-2.05-3.16-3.53-4.09-1.48-.93-3.11-1.39-4.91-1.39-1.91,0-3.62.51-5.14,1.52-1.52,1.01-2.72,2.43-3.58,4.24-.86,1.81-1.29,3.88-1.29,6.19s.44,4.37,1.33,6.19c.89,1.81,2.13,3.24,3.73,4.28,1.6,1.04,3.48,1.56,5.63,1.56,1.75,0,3.26-.32,4.54-.96,1.28-.64,2.35-1.58,3.23-2.8l-3.36-4.45c-.63.69-1.26,1.19-1.9,1.52-.64.33-1.41.49-2.3.49-.96,0-1.79-.22-2.49-.66-.69-.44-1.23-1.08-1.6-1.91-.16-.35-.26-.75-.35-1.16h13.21c.02-.31.04-.66.07-1.03.02-.37.03-.7.03-.99,0-2.57-.44-4.75-1.31-6.55ZM150.52,19.13c.57-.43,1.24-.64,2-.64s1.43.21,2,.64c.57.43,1.02,1.03,1.34,1.8.19.46.3.98.37,1.54h-7.42c.08-.55.19-1.06.37-1.52.31-.79.76-1.39,1.33-1.82Z"/>
  </g>
  <g>
    <polygon class="cls-1" points="191.01 17.59 181.93 17.59 181.93 6.33 175.28 6.33 175.28 36.31 181.93 36.31 181.93 24.61 191.01 24.61 191.01 36.31 197.66 36.31 197.66 6.33 191.01 6.33 191.01 17.59"/>
    <path class="cls-1" d="M216.53,14.23c-1.56-1.01-3.33-1.52-5.33-1.52s-3.76.51-5.31,1.52c-1.55,1.01-2.76,2.42-3.65,4.22-.89,1.8-1.33,3.87-1.33,6.21s.44,4.42,1.33,6.23c.89,1.81,2.1,3.23,3.65,4.26,1.55,1.03,3.32,1.54,5.31,1.54s3.77-.51,5.33-1.54,2.77-2.45,3.65-4.26c.87-1.81,1.31-3.89,1.31-6.23s-.44-4.41-1.31-6.21c-.87-1.8-2.09-3.2-3.65-4.22ZM214.53,27.68c-.34.84-.79,1.48-1.36,1.91-.57.43-1.23.64-1.97.64s-1.36-.21-1.93-.64c-.57-.43-1.03-1.06-1.38-1.91-.35-.84-.52-1.85-.52-3.02s.17-2.16.52-2.98c.35-.81.81-1.43,1.38-1.86.57-.43,1.22-.64,1.93-.64s1.39.21,1.97.64c.57.43,1.02,1.05,1.36,1.86.34.81.5,1.81.5,2.98s-.17,2.18-.5,3.02Z"/>
    <polygon class="cls-1" points="232.45 27.29 228.08 13.09 221.52 13.09 229.02 36.31 235.61 36.31 243.13 13.09 237.05 13.09 232.45 27.29"/>
    <path class="cls-1" d="M258.06,14.1c-1.48-.93-3.11-1.39-4.91-1.39-1.91,0-3.62.51-5.14,1.52-1.52,1.01-2.72,2.43-3.58,4.24-.86,1.81-1.29,3.88-1.29,6.19s.44,4.37,1.33,6.19c.89,1.81,2.13,3.24,3.73,4.28,1.6,1.04,3.48,1.56,5.63,1.56,1.75,0,3.26-.32,4.54-.96,1.28-.64,2.35-1.58,3.23-2.8l-3.36-4.45c-.63.69-1.26,1.19-1.9,1.52-.64.33-1.41.49-2.3.49-.96,0-1.79-.22-2.49-.66-.69-.44-1.23-1.08-1.6-1.91-.16-.35-.26-.75-.35-1.16h13.21c.02-.31.04-.66.07-1.03s.03-.7.03-.99c0-2.57-.44-4.75-1.31-6.55-.87-1.8-2.05-3.16-3.53-4.09ZM251.18,19.13c.57-.43,1.24-.64,2-.64s1.43.21,2,.64c.57.43,1.02,1.03,1.34,1.8.19.46.3.98.37,1.54h-7.42c.08-.55.19-1.06.37-1.52.31-.79.76-1.39,1.33-1.82Z"/>
    <path class="cls-1" d="M273.65,14.02c-.68.49-1.25,1.14-1.71,1.9v-2.82h-6.08v23.21h6.39v-10.66c0-2.03.4-3.49,1.21-4.39.81-.9,1.86-1.35,3.16-1.35.25,0,.48,0,.69.02.21.01.46.05.76.11v-7.32c-1.73,0-3.19.44-4.4,1.31Z"/>
  </g>
</svg>