<svg width="64" height="64" viewBox="0 0 64 64" fill="none" xmlns="http://www.w3.org/2000/svg">
<rect width="64" height="64" rx="20" fill="white"/>
<rect width="64" height="64" rx="20" fill="url(#paint0_linear_1_252)"/>
<path d="M19.3334 32.0002C19.3334 26.029 19.3334 23.0435 21.1884 21.1885C23.0434 19.3335 26.0289 19.3335 32 19.3335C37.9711 19.3335 40.9567 19.3335 42.8118 21.1885C44.6667 23.0435 44.6667 26.029 44.6667 32.0002C44.6667 37.9713 44.6667 40.9569 42.8118 42.8118C40.9567 44.6669 37.9711 44.6669 32 44.6669C26.0289 44.6669 23.0434 44.6669 21.1884 42.8118C19.3334 40.9569 19.3334 37.9713 19.3334 32.0002Z" stroke="#EE326E" stroke-width="3.33333" stroke-linecap="round" stroke-linejoin="round"/>
<path d="M32 26.6666V37.3334M37.3333 32H26.6666" stroke="#EE326E" stroke-width="3.33333" stroke-linecap="round" stroke-linejoin="round"/>
<defs>
<linearGradient id="paint0_linear_1_252" x1="10.8571" y1="9.71428" x2="54.8571" y2="53.7143" gradientUnits="userSpaceOnUse">
<stop stop-color="#FEF6F8"/>
<stop offset="1" stop-color="#FBD0DE"/>
</linearGradient>
</defs>
</svg>
