<svg width="64" height="64" viewBox="0 0 64 64" fill="none" xmlns="http://www.w3.org/2000/svg">
<rect width="64" height="64" rx="20" fill="white"/>
<rect width="64" height="64" rx="20" fill="url(#paint0_linear_1_258)"/>
<path d="M18.6666 32C18.6666 26.6938 18.6666 24.0407 20.0704 22.2693C20.2949 21.986 20.5423 21.724 20.8099 21.4863C22.4828 20 24.9885 20 30 20H34C39.0114 20 41.5172 20 43.19 21.4863C43.4576 21.724 43.705 21.986 43.9296 22.2693C45.3333 24.0407 45.3333 26.6938 45.3333 32C45.3333 37.3063 45.3333 39.9593 43.9296 41.7307C43.705 42.014 43.4576 42.276 43.19 42.5137C41.5172 44 39.0114 44 34 44H30C24.9885 44 22.4828 44 20.8099 42.5137C20.5423 42.276 20.2949 42.014 20.0704 41.7307C18.6666 39.9593 18.6666 37.3063 18.6666 32Z" stroke="#EE326E" stroke-width="3.33333" stroke-linecap="round"/>
<path d="M30 28H29.3334C28.0909 28 27.4696 28 26.9795 28.203C26.3261 28.4736 25.807 28.9928 25.5364 29.6461C25.3334 30.1363 25.3334 30.7575 25.3334 32C25.3334 33.2425 25.3334 33.8637 25.5364 34.3539C25.807 35.0072 26.3261 35.5264 26.9795 35.7971C27.4696 36 28.0909 36 29.3334 36H30M38.6667 28H38C36.7575 28 36.1363 28 35.6462 28.203C34.9928 28.4736 34.4736 28.9928 34.203 29.6461C34 30.1363 34 30.7575 34 32C34 33.2425 34 33.8637 34.203 34.3539C34.4736 35.0072 34.9928 35.5264 35.6462 35.7971C36.1363 36 36.7575 36 38 36H38.6667" stroke="#EE326E" stroke-width="3.33333" stroke-linecap="round"/>
<defs>
<linearGradient id="paint0_linear_1_258" x1="10.8571" y1="9.71428" x2="54.8571" y2="53.7143" gradientUnits="userSpaceOnUse">
<stop stop-color="#FEF6F8"/>
<stop offset="1" stop-color="#FBD0DE"/>
</linearGradient>
</defs>
</svg>
