<svg width="64" height="64" viewBox="0 0 64 64" fill="none" xmlns="http://www.w3.org/2000/svg">
<rect width="64" height="64" rx="20" fill="white"/>
<rect width="64" height="64" rx="20" fill="url(#paint0_linear_1_260)"/>
<path d="M24.3935 35.2272C26.2048 33.9557 27.1105 33.32 27.287 32.4581C27.3488 32.1562 27.3488 31.8437 27.287 31.5417C27.1105 30.68 26.2048 30.0442 24.3935 28.7727C22.2 27.233 21.1033 26.4631 20.2043 26.713C19.8925 26.7997 19.6043 26.9621 19.3628 27.1872C18.6667 27.8362 18.6667 29.2241 18.6667 32C18.6667 34.7758 18.6667 36.1638 19.3628 36.8128C19.6043 37.0378 19.8925 37.2002 20.2043 37.2869C21.1033 37.5369 22.2 36.7669 24.3935 35.2272Z" stroke="#EE326E" stroke-width="2.5" stroke-linecap="round"/>
<path d="M39.6064 28.7727C37.7952 30.0442 36.8895 30.68 36.7131 31.5418C36.6512 31.8437 36.6512 32.1562 36.7131 32.4581C36.8895 33.32 37.7952 33.9557 39.6064 35.2272C41.8 36.7669 42.8967 37.5369 43.7957 37.2869C44.1075 37.2002 44.3957 37.0378 44.6372 36.8128C45.3333 36.1638 45.3333 34.7758 45.3333 32C45.3333 29.2241 45.3333 27.8362 44.6372 27.1872C44.3957 26.9621 44.1075 26.7997 43.7957 26.713C42.8967 26.4631 41.8 27.233 39.6064 28.7727Z" stroke="#EE326E" stroke-width="2.5" stroke-linecap="round"/>
<path d="M32 34.6667V29.3333M32 24.6667V20M32 44V39.3333" stroke="#EE326E" stroke-width="2.5" stroke-linecap="round"/>
<defs>
<linearGradient id="paint0_linear_1_260" x1="10.8571" y1="9.71428" x2="54.8571" y2="53.7143" gradientUnits="userSpaceOnUse">
<stop stop-color="#FEF6F8"/>
<stop offset="1" stop-color="#FBD0DE"/>
</linearGradient>
</defs>
</svg>
