<svg width="64" height="64" viewBox="0 0 64 64" fill="none" xmlns="http://www.w3.org/2000/svg">
<rect width="64" height="64" rx="20" fill="white"/>
<rect width="64" height="64" rx="20" fill="url(#paint0_linear_1_254)"/>
<path d="M32.8253 21.0368C35.7226 19.1862 37.1719 18.2622 38.2853 18.8355C39.3986 19.4088 39.4399 21.0995 39.5226 24.4835L39.5439 25.3595C39.5666 26.3195 39.5786 26.8008 39.7773 27.2168C39.9746 27.6315 40.3373 27.9342 41.0613 28.5395L41.7213 29.0902C44.2693 31.2208 45.5439 32.2862 45.3053 33.5462C45.0653 34.8075 43.4733 35.4288 40.2853 36.6715L39.4613 36.9928C38.5546 37.3462 38.1013 37.5235 37.7626 37.8555C37.4226 38.1875 37.2359 38.6368 36.8599 39.5368L36.5173 40.3555C35.1946 43.5222 34.5333 45.1062 33.2719 45.3115C32.0106 45.5182 30.9853 44.2102 28.9333 41.5942L28.4026 40.9182C27.8186 40.1742 27.5279 39.8035 27.1199 39.5928C26.7119 39.3835 26.2333 39.3582 25.2773 39.3088L24.4053 39.2648C21.0399 39.0915 19.3573 39.0048 18.8159 37.8715C18.2759 36.7382 19.2346 35.3088 21.1533 32.4488L21.6506 31.7088C22.1946 30.8955 22.4679 30.4902 22.5559 30.0288C22.6426 29.5662 22.5346 29.1008 22.3199 28.1715L22.1239 27.3248C21.3653 24.0515 20.9866 22.4128 21.9146 21.5062C22.8413 20.5995 24.4613 21.0235 27.6986 21.8728L28.5359 22.0915C29.4559 22.3328 29.9159 22.4528 30.3786 22.3782C30.8399 22.3022 31.2519 22.0395 32.0746 21.5142L32.8253 21.0368Z" stroke="#EE326E" stroke-width="3.33333"/>
<path d="M42.4476 40.4499C42.3182 40.311 42.1621 40.1996 41.9887 40.1224C41.8154 40.0451 41.6282 40.0036 41.4384 40.0002C41.2486 39.9969 41.0601 40.0318 40.8841 40.1029C40.7081 40.174 40.5482 40.2798 40.414 40.414C40.2798 40.5482 40.174 40.7081 40.1029 40.8841C40.0318 41.0601 39.9969 41.2486 40.0002 41.4384C40.0036 41.6282 40.0451 41.8154 40.1224 41.9887C40.1996 42.1621 40.311 42.3182 40.4499 42.4476L42.4476 40.4499ZM44.2191 46.2168C44.3485 46.3557 44.5045 46.4671 44.6779 46.5443C44.8513 46.6216 45.0385 46.6631 45.2283 46.6664C45.4181 46.6698 45.6066 46.6349 45.7826 46.5638C45.9586 46.4927 46.1185 46.3869 46.2527 46.2527C46.3869 46.1185 46.4927 45.9586 46.5638 45.7826C46.6349 45.6066 46.6698 45.4181 46.6664 45.2283C46.6631 45.0385 46.6216 44.8513 46.5443 44.6779C46.4671 44.5045 46.3557 44.3485 46.2168 44.2191L44.2191 46.2168ZM40.4499 42.4476L44.2191 46.2168L46.2168 44.2191L42.4476 40.4499L40.4499 42.4476Z" fill="#EE326E"/>
<defs>
<linearGradient id="paint0_linear_1_254" x1="10.8571" y1="9.71428" x2="54.8571" y2="53.7143" gradientUnits="userSpaceOnUse">
<stop stop-color="#FEF6F8"/>
<stop offset="1" stop-color="#FBD0DE"/>
</linearGradient>
</defs>
</svg>
