<svg width="64" height="64" viewBox="0 0 64 64" fill="none" xmlns="http://www.w3.org/2000/svg">
<rect width="64" height="64" rx="20" fill="white"/>
<rect width="64" height="64" rx="20" fill="url(#paint0_linear_1_265)"/>
<path d="M40.6688 41.4961L44 44.8294M42.6667 36.1628C42.6667 32.1128 39.3835 28.8295 35.3333 28.8295C31.2832 28.8295 28 32.1128 28 36.1628C28 40.2129 31.2832 43.4961 35.3333 43.4961C39.3835 43.4961 42.6667 40.2129 42.6667 36.1628Z" stroke="#EE326E" stroke-width="2.5" stroke-linecap="round"/>
<path d="M35.3334 33.4961V38.8294M38 36.1628H32.6667" stroke="#EE326E" stroke-width="2.5" stroke-linecap="round"/>
<path d="M24.6667 44.8294C22.0893 44.8294 20 42.7401 20 40.1628V25.4961C20 22.9188 22.0893 20.8295 24.6667 20.8295H39.3333C41.9107 20.8295 44 22.9188 44 25.4961" stroke="#EE326E" stroke-width="2.5" stroke-linecap="round"/>
<path d="M26.6667 26.6666V27.3333" stroke="#EE326E" stroke-width="2.5" stroke-linecap="round"/>
<path d="M27.0065 26.9935L26.3399 26.9935" stroke="#EE326E" stroke-width="2.5" stroke-linecap="round"/>
<defs>
<linearGradient id="paint0_linear_1_265" x1="10.8571" y1="9.71428" x2="54.8571" y2="53.7143" gradientUnits="userSpaceOnUse">
<stop stop-color="#FEF6F8"/>
<stop offset="1" stop-color="#FBD0DE"/>
</linearGradient>
</defs>
</svg>
