<svg width="64" height="64" viewBox="0 0 64 64" fill="none" xmlns="http://www.w3.org/2000/svg">
<rect width="64" height="64" rx="20" fill="white"/>
<rect width="64" height="64" rx="20" fill="url(#paint0_linear_1_256)"/>
<path d="M19.3334 32C19.3334 26.0289 19.3334 23.0434 21.1884 21.1884C23.0434 19.3334 26.0289 19.3334 32 19.3334C37.9711 19.3334 40.9567 19.3334 42.8118 21.1884C44.6667 23.0434 44.6667 26.0289 44.6667 32C44.6667 37.9711 44.6667 40.9567 42.8118 42.8118C40.9567 44.6667 37.9711 44.6667 32 44.6667C26.0289 44.6667 23.0434 44.6667 21.1884 42.8118C19.3334 40.9567 19.3334 37.9711 19.3334 32Z" stroke="#EE326E" stroke-width="3.33333"/>
<path d="M25.3334 29.3334C25.3334 27.4478 25.3334 26.5049 25.9192 25.9192C26.5049 25.3334 27.4478 25.3334 29.3334 25.3334C31.219 25.3334 32.1618 25.3334 32.7476 25.9192C33.3334 26.5049 33.3334 27.4478 33.3334 29.3334C33.3334 31.219 33.3334 32.1618 32.7476 32.7476C32.1618 33.3334 31.219 33.3334 29.3334 33.3334C27.4478 33.3334 26.5049 33.3334 25.9192 32.7476C25.3334 32.1618 25.3334 31.219 25.3334 29.3334Z" stroke="#EE326E" stroke-width="3.33333"/>
<defs>
<linearGradient id="paint0_linear_1_256" x1="10.8571" y1="9.71428" x2="54.8571" y2="53.7143" gradientUnits="userSpaceOnUse">
<stop stop-color="#FEF6F8"/>
<stop offset="1" stop-color="#FBD0DE"/>
</linearGradient>
</defs>
</svg>
